<svg width="417" height="776" viewBox="0 0 417 776" fill="none" xmlns="http://www.w3.org/2000/svg">
<path opacity="0.2" d="M64.0521 0.58015C35.1881 7.15793 12.3709 30.9037 4.08965 58.8769C-4.48557 87.8559 4.89098 118.053 27.3977 138.022C49.1311 157.284 81.2767 166.113 108.969 155.11C134.873 144.816 157.143 116.075 144.241 87.7624C133.343 63.8554 101.723 50.1808 77.2786 60.9634C52.8343 71.746 41.2439 101.248 46.0395 126.545C52.0996 158.461 83.4376 175.738 112.005 184.342C146.608 194.831 186.789 195.956 215.329 220.702C237.83 240.213 249.115 270.893 247.248 300.346C246.409 315.104 241.897 329.421 234.12 341.999C225.515 355.648 210.691 367.423 194.21 369.204C175.875 371.189 162.515 357.287 160.976 339.654C159.301 320.267 170.876 303.166 181.896 288.305C202.946 259.931 229.983 231.61 265.405 222.52C296.776 214.509 334.718 222.706 351.757 252.41C371.071 286.087 358.093 326.708 338.402 356.86C327.716 373.215 314.958 388.173 302.4 403.11C289.635 418.297 276.754 433.41 264.704 449.199C241.903 479.14 222.091 511.938 213.823 549.018C206.063 583.801 208.945 621.072 228.594 651.567C246.851 679.987 276.021 699.848 306.94 712.433C345.565 728.201 387.418 734.079 428.237 741.362L559.163 764.735L621.943 775.938C623.294 776.18 623.834 774.111 622.492 773.86L493.137 750.764C451.054 743.257 408.685 736.67 366.872 727.775C329.651 719.847 292.269 708.103 261.934 684.342C248.499 673.82 236.645 661.141 227.968 646.391C218.651 630.276 213.251 612.204 212.204 593.627C207.081 512.823 266.322 450.154 314.138 392.412C336.91 364.896 360.296 334.28 363.03 297.323C364.226 281.348 361.493 264.694 353.305 250.75C345.764 238.169 334.225 228.467 320.525 223.19C290.955 211.467 257.888 218.419 231.911 235.368C217.395 244.867 204.795 257.026 193.573 270.143C182.116 283.549 170.139 298.268 163.278 314.626C157.439 328.556 156.276 345.648 165.284 358.581C173.339 370.131 187.398 373.648 200.618 370.159C229.412 362.56 245.746 333.164 248.943 305.385C252.105 277.836 243.698 248.773 225.433 227.76C202.167 201.032 166.278 194.978 133.442 187.6C102.341 180.62 64.1158 168.676 51.0787 136.193C40.6628 110.247 51.092 75.5756 77.2399 63.3312C103.654 50.9405 140.072 69.2642 145.273 98.1171C151.518 132.695 113.896 157.772 83.2522 157.784C52.608 157.797 22.4119 138.463 9.45044 110.724C-4.0218 81.846 4.78433 47.3752 26.2487 24.8388C36.5718 13.8353 49.9222 6.12375 64.6221 2.67348C65.9857 2.36129 65.3684 0.30671 64.0521 0.58015Z" fill="url(#paint0_linear_119_30)"/>
<defs>
<linearGradient id="paint0_linear_119_30" x1="306.978" y1="-2.33914" x2="317.329" y2="865.599" gradientUnits="userSpaceOnUse">
<stop stop-color="#F80A0A"/>
<stop offset="1" stop-color="#191B24" stop-opacity="0.08"/>
</linearGradient>
</defs>
</svg>
