<svg xmlns="http://www.w3.org/2000/svg" xmlns:xlink="http://www.w3.org/1999/xlink" viewBox="0 0 2836.62 630.17"><defs><style>.a{fill:url(#a);}.b{fill:url(#b);}.c{fill:url(#c);}.d{fill:url(#d);}</style><linearGradient id="a" x1="132.43" y1="317.4" x2="414.39" y2="662.41" gradientUnits="userSpaceOnUse"><stop offset="0" stop-color="#fff"/><stop offset="0.18" stop-color="#f5f5f5"/><stop offset="1" stop-color="#ccc"/></linearGradient><linearGradient id="b" x1="430.01" y1="183.45" x2="694.4" y2="731.57" gradientUnits="userSpaceOnUse"><stop offset="0" stop-color="#ccc"/><stop offset="0.04" stop-color="#d2d2d2"/><stop offset="0.2" stop-color="#e6e6e6"/><stop offset="0.39" stop-color="#f4f4f4"/><stop offset="0.61" stop-color="#fdfdfd"/><stop offset="1" stop-color="#fff"/></linearGradient><linearGradient id="c" x1="421.88" y1="126.6" x2="1669.94" y2="126.6" gradientUnits="userSpaceOnUse"><stop offset="0" stop-color="#fff"/><stop offset="1" stop-color="#f2f2f2"/></linearGradient><linearGradient id="d" x1="2234.99" y1="457.08" x2="4385.57" y2="457.08" gradientTransform="matrix(1, 0, -0.16, 1, -1503.09, 0)" xlink:href="#c"/></defs><path class="a" d="M0,234.28,220.47,623.84h45.26c108.46,0,196.73-43.83,92.31-188.17L276.47,296.86c-24.93-43.67-86.53-62.58-136.72-62.58Z"/><path class="b" d="M777.69,29.41l-302.5,564a57.43,57.43,0,0,1-50.68,30.41h-204L494,120.43a173.06,173.06,0,0,1,152.38-91Z"/><path class="c" d="M870.63,99.2a10.22,10.22,0,1,0,10.21-10.36A10.29,10.29,0,0,0,870.63,99.2ZM1042.4,51a10.22,10.22,0,1,0,10.21-10.37A10.28,10.28,0,0,0,1042.4,51Zm100.87,96.34a10.22,10.22,0,1,0,10.21-10.37A10.28,10.28,0,0,0,1143.27,147.3Zm500.09-51.25A26.58,26.58,0,0,0,1619,112.21H904.12a26.5,26.5,0,0,1-23.28,14,27,27,0,1,1,23.57-39.45h348A26.68,26.68,0,1,0,1276.34,48a26.54,26.54,0,0,0-23.48,14.31H1076.74A26.52,26.52,0,0,1,1026,51a26.52,26.52,0,0,1,49.8-13.14h355.11A26.53,26.53,0,0,0,1481.86,27a26.52,26.52,0,0,0-50.11-12.56h-801c-55.25-2.12-90,15-106.65,48.9L421.88,253.19c33.8-50.51,90.88-76.37,175.7-72.83l739.18,2.76a27,27,0,1,0-.22-23.57H1177.16A26.95,26.95,0,1,1,1176,133h442.63a26.67,26.67,0,1,0,24.69-37Zm-367-31.49a10.36,10.36,0,1,1-10.21,10.36A10.29,10.29,0,0,1,1276.34,64.56Zm178.94-48A10.37,10.37,0,1,1,1445.07,27,10.29,10.29,0,0,1,1455.28,16.6Zm-94.72,144.14a10.37,10.37,0,1,1-10.21,10.37A10.3,10.3,0,0,1,1360.56,160.74Zm282.8-27.36A10.37,10.37,0,1,1,1653.57,123,10.29,10.29,0,0,1,1643.36,133.38Z"/><path class="d" d="M1015.91,486.14q11.69-30.92,15.51-55,7-43.89-7.85-77.27t-49.31-51.62Q939.73,284,889.67,284q-59.34,0-109.36,25a228.17,228.17,0,0,0-82.67,69.24,223.29,223.29,0,0,0-41.37,99.21q-7.34,46.37,9.17,80.67t54,53.16q37.5,18.87,90.67,18.86,84.06,0,149.65-43.27l-37.18-73.56a140,140,0,0,1-40.94,20.39,149.91,149.91,0,0,1-44.35,6.8q-69.87,0-67.42-54.39Zm-195-103.55q21.54-15.13,50-15.14t43.35,15.14q14.89,15.17,10.08,41.73H786.47Q799.33,397.74,820.9,382.59Zm503.9,7.11L1362,284q-79.14,0-127.92,42.66l13.29-37.09H1136.05L1016.22,624.61h117.46l57.21-158.26q14.47-40.78,41.28-59.65t66.35-18.85A221.68,221.68,0,0,1,1324.8,389.7ZM1837.93,284a181.75,181.75,0,0,0-70.51,13.91,197.75,197.75,0,0,0-61.12,40.49,76.16,76.16,0,0,0-34.39-40.49Q1647.54,284,1614.15,284q-58.73,0-106.4,39.57l12.18-34H1408.66L1288.83,624.61h117.45l59.92-167.53q26.49-73.56,83.36-73.56,20.4,0,29.4,11.44t5.48,33.69a108.62,108.62,0,0,1-6.09,22.87L1515.7,624.61h117.45l60.73-168.76q26.3-72.33,82.54-72.33,20.4,0,29.46,11.13t5.53,33.38a124.31,124.31,0,0,1-6.19,23.49l-62,173.09h117.45l65.84-185.45a222.85,222.85,0,0,0,10.89-41.42q8.61-54.39-18.83-84.07T1837.93,284Zm458.42,5.57L2282,329.74Q2259.51,284,2186.58,284q-49.47,0-95.2,25.35t-77.16,69.54a229.87,229.87,0,0,0-40,98.6q-7.44,47,6.86,81.6t43.86,52.85q29.56,18.24,66.66,18.24,56.86,0,102.92-37.09l-11.79,31.53H2294l119.83-335Zm-54.48,152.69q-6.55,41.42-32.92,67.38t-61.6,26q-29.68,0-44-17t-9.61-46.67q6.66-42,33-68t61.6-26q29.68,0,43.93,17.31T2241.87,442.25Zm594.75-152.69h-129.2l-93.25,85.31-31-85.31h-123l62.55,163.19L2328,624.61h132.91l94.88-87.78,31.84,87.78h124.88l-64.54-166.29Z"/></svg>