<svg width="720" height="96" viewBox="0 0 720 96" fill="none" xmlns="http://www.w3.org/2000/svg">
<g opacity="0.1">
<mask id="mask0_4_3144" style="mask-type:alpha" maskUnits="userSpaceOnUse" x="0" y="0" width="720" height="96">
<rect x="720" y="96" width="720" height="95.9999" transform="rotate(-180 720 96)" fill="#0048F5"/>
</mask>
<g mask="url(#mask0_4_3144)">
<rect x="674.297" y="-87.0001" width="292" height="12" transform="rotate(135 674.297 -87.0001)" fill="#0048F5"/>
<rect x="703.258" y="-87.0001" width="292" height="12" transform="rotate(135 703.258 -87.0001)" fill="#0048F5"/>
<rect x="732.219" y="-87.0001" width="292" height="12" transform="rotate(135 732.219 -87.0001)" fill="#0048F5"/>
<rect x="761.18" y="-87.0001" width="292" height="12" transform="rotate(135 761.18 -87.0001)" fill="#0048F5"/>
<rect x="790.141" y="-87.0001" width="292" height="12" transform="rotate(135 790.141 -87.0001)" fill="#0048F5"/>
<rect x="819.102" y="-87.0001" width="292" height="12" transform="rotate(135 819.102 -87.0001)" fill="#0048F5"/>
<rect x="848.062" y="-87.0001" width="292" height="12" transform="rotate(135 848.062 -87.0001)" fill="#0048F5"/>
<rect x="877.023" y="-87.0001" width="292" height="12" transform="rotate(135 877.023 -87.0001)" fill="#0048F5"/>
<rect x="905.984" y="-87.0001" width="292" height="12" transform="rotate(135 905.984 -87.0001)" fill="#0048F5"/>
<rect x="645.336" y="-87.0001" width="292" height="12" transform="rotate(135 645.336 -87.0001)" fill="#0048F5"/>
<rect x="616.375" y="-87.0001" width="292" height="12" transform="rotate(135 616.375 -87.0001)" fill="#0048F5"/>
<rect x="587.414" y="-87.0001" width="292" height="12" transform="rotate(135 587.414 -87.0001)" fill="#0048F5"/>
<rect x="558.453" y="-87.0001" width="292" height="12" transform="rotate(135 558.453 -87.0001)" fill="#0048F5"/>
<rect x="529.492" y="-87.0001" width="292" height="12" transform="rotate(135 529.492 -87.0001)" fill="#0048F5"/>
<rect x="500.531" y="-87.0001" width="292" height="12" transform="rotate(135 500.531 -87.0001)" fill="#0048F5"/>
<rect x="471.57" y="-87.0001" width="292" height="12" transform="rotate(135 471.57 -87.0001)" fill="#0048F5"/>
<rect x="442.609" y="-87.0001" width="292" height="12" transform="rotate(135 442.609 -87.0001)" fill="#0048F5"/>
<rect x="413.648" y="-87.0001" width="292" height="12" transform="rotate(135 413.648 -87.0001)" fill="#0048F5"/>
<rect x="384.688" y="-87.0001" width="292" height="12" transform="rotate(135 384.688 -87.0001)" fill="#0048F5"/>
<rect x="355.727" y="-87.0001" width="292" height="12" transform="rotate(135 355.727 -87.0001)" fill="#0048F5"/>
<rect x="326.766" y="-87.0001" width="292" height="12" transform="rotate(135 326.766 -87.0001)" fill="#0048F5"/>
<rect x="297.805" y="-87.0001" width="292" height="12" transform="rotate(135 297.805 -87.0001)" fill="#0048F5"/>
<rect x="268.844" y="-87.0001" width="292" height="12" transform="rotate(135 268.844 -87.0001)" fill="#0048F5"/>
<rect x="239.883" y="-87.0001" width="292" height="12" transform="rotate(135 239.883 -87.0001)" fill="#0048F5"/>
<rect x="210.922" y="-87.0001" width="292" height="12" transform="rotate(135 210.922 -87.0001)" fill="#0048F5"/>
<rect x="181.961" y="-87.0001" width="292" height="12" transform="rotate(135 181.961 -87.0001)" fill="#0048F5"/>
<rect x="153" y="-87.0001" width="292" height="12" transform="rotate(135 153 -87.0001)" fill="#0048F5"/>
<rect x="124.039" y="-87.0001" width="292" height="12" transform="rotate(135 124.039 -87.0001)" fill="#0048F5"/>
<rect x="95.0782" y="-87.0001" width="292" height="12" transform="rotate(135 95.0782 -87.0001)" fill="#0048F5"/>
</g>
</g>
</svg>
